<mxfile host="app.diagrams.net" modified="2022-05-02T07:59:30.644Z" agent="5.0 (Macintosh; Intel Mac OS X 10_15_7) AppleWebKit/537.36 (KHTML, like Gecko) Chrome/100.0.4896.127 Safari/537.36" etag="DSeAYogmxPayjfYUitCN" version="17.5.0" type="github">
  <diagram id="itSaTkRZvaF08hJl4d-_" name="第 1 页">
    <mxGraphModel dx="1426" dy="794" grid="0" gridSize="10" guides="1" tooltips="1" connect="1" arrows="1" fold="1" page="1" pageScale="1" pageWidth="827" pageHeight="1169" math="0" shadow="1">
      <root>
        <mxCell id="0" />
        <mxCell id="1" parent="0" />
        <mxCell id="1KdMk6m9oYXf7EynhkcC-4" value="" style="rounded=0;whiteSpace=wrap;html=1;" vertex="1" parent="1">
          <mxGeometry x="130" y="240" width="600" height="540" as="geometry" />
        </mxCell>
        <mxCell id="1KdMk6m9oYXf7EynhkcC-11" style="edgeStyle=orthogonalEdgeStyle;rounded=0;orthogonalLoop=1;jettySize=auto;html=1;entryX=0.5;entryY=0;entryDx=0;entryDy=0;curved=1;exitX=0.5;exitY=1;exitDx=0;exitDy=0;fillColor=#f5f5f5;strokeColor=#666666;strokeWidth=2;" edge="1" parent="1" source="1KdMk6m9oYXf7EynhkcC-1" target="1KdMk6m9oYXf7EynhkcC-5">
          <mxGeometry relative="1" as="geometry" />
        </mxCell>
        <mxCell id="1KdMk6m9oYXf7EynhkcC-1" value="web-gray" style="rounded=0;whiteSpace=wrap;html=1;" vertex="1" parent="1">
          <mxGeometry x="170" y="80" width="120" height="60" as="geometry" />
        </mxCell>
        <mxCell id="1KdMk6m9oYXf7EynhkcC-12" style="edgeStyle=orthogonalEdgeStyle;curved=1;rounded=0;orthogonalLoop=1;jettySize=auto;html=1;entryX=0.5;entryY=0;entryDx=0;entryDy=0;fillColor=#d5e8d4;strokeColor=#82b366;strokeWidth=2;" edge="1" parent="1" source="1KdMk6m9oYXf7EynhkcC-2" target="1KdMk6m9oYXf7EynhkcC-5">
          <mxGeometry relative="1" as="geometry" />
        </mxCell>
        <mxCell id="1KdMk6m9oYXf7EynhkcC-2" value="web-prod" style="rounded=0;whiteSpace=wrap;html=1;" vertex="1" parent="1">
          <mxGeometry x="350" y="80" width="120" height="60" as="geometry" />
        </mxCell>
        <mxCell id="1KdMk6m9oYXf7EynhkcC-13" style="edgeStyle=orthogonalEdgeStyle;curved=1;rounded=0;orthogonalLoop=1;jettySize=auto;html=1;entryX=0.5;entryY=0;entryDx=0;entryDy=0;exitX=0.5;exitY=1;exitDx=0;exitDy=0;fillColor=#ffe6cc;strokeColor=#d79b00;strokeWidth=2;" edge="1" parent="1" source="1KdMk6m9oYXf7EynhkcC-3" target="1KdMk6m9oYXf7EynhkcC-5">
          <mxGeometry relative="1" as="geometry" />
        </mxCell>
        <mxCell id="1KdMk6m9oYXf7EynhkcC-3" value="web-default" style="rounded=0;whiteSpace=wrap;html=1;" vertex="1" parent="1">
          <mxGeometry x="530" y="80" width="120" height="60" as="geometry" />
        </mxCell>
        <mxCell id="1KdMk6m9oYXf7EynhkcC-14" style="edgeStyle=orthogonalEdgeStyle;curved=1;rounded=0;orthogonalLoop=1;jettySize=auto;html=1;entryX=0.5;entryY=0;entryDx=0;entryDy=0;exitX=0.5;exitY=1;exitDx=0;exitDy=0;fillColor=#f5f5f5;strokeColor=#666666;strokeWidth=2;" edge="1" parent="1" source="1KdMk6m9oYXf7EynhkcC-5" target="1KdMk6m9oYXf7EynhkcC-6">
          <mxGeometry relative="1" as="geometry" />
        </mxCell>
        <mxCell id="1KdMk6m9oYXf7EynhkcC-15" style="edgeStyle=orthogonalEdgeStyle;curved=1;rounded=0;orthogonalLoop=1;jettySize=auto;html=1;entryX=0.5;entryY=0;entryDx=0;entryDy=0;exitX=0.5;exitY=1;exitDx=0;exitDy=0;fillColor=#d5e8d4;strokeColor=#82b366;strokeWidth=2;" edge="1" parent="1" source="1KdMk6m9oYXf7EynhkcC-5" target="1KdMk6m9oYXf7EynhkcC-7">
          <mxGeometry relative="1" as="geometry" />
        </mxCell>
        <mxCell id="1KdMk6m9oYXf7EynhkcC-20" style="edgeStyle=orthogonalEdgeStyle;curved=1;rounded=0;orthogonalLoop=1;jettySize=auto;html=1;entryX=0;entryY=0.5;entryDx=0;entryDy=0;strokeWidth=2;exitX=0.5;exitY=1;exitDx=0;exitDy=0;fillColor=#ffe6cc;strokeColor=#d79b00;" edge="1" parent="1" source="1KdMk6m9oYXf7EynhkcC-5" target="1KdMk6m9oYXf7EynhkcC-7">
          <mxGeometry relative="1" as="geometry" />
        </mxCell>
        <mxCell id="1KdMk6m9oYXf7EynhkcC-5" value="istio-ingressgateway" style="rounded=0;whiteSpace=wrap;html=1;" vertex="1" parent="1">
          <mxGeometry x="350" y="270" width="120" height="60" as="geometry" />
        </mxCell>
        <mxCell id="1KdMk6m9oYXf7EynhkcC-16" style="edgeStyle=orthogonalEdgeStyle;curved=1;rounded=0;orthogonalLoop=1;jettySize=auto;html=1;entryX=0.5;entryY=0;entryDx=0;entryDy=0;exitX=0.5;exitY=1;exitDx=0;exitDy=0;fillColor=#f5f5f5;strokeColor=#666666;strokeWidth=2;" edge="1" parent="1" source="1KdMk6m9oYXf7EynhkcC-6" target="1KdMk6m9oYXf7EynhkcC-8">
          <mxGeometry relative="1" as="geometry" />
        </mxCell>
        <mxCell id="1KdMk6m9oYXf7EynhkcC-6" value="cat-gray" style="rounded=0;whiteSpace=wrap;html=1;" vertex="1" parent="1">
          <mxGeometry x="190" y="400" width="120" height="60" as="geometry" />
        </mxCell>
        <mxCell id="1KdMk6m9oYXf7EynhkcC-17" style="edgeStyle=orthogonalEdgeStyle;curved=1;rounded=0;orthogonalLoop=1;jettySize=auto;html=1;entryX=0.5;entryY=0;entryDx=0;entryDy=0;exitX=0.5;exitY=1;exitDx=0;exitDy=0;fillColor=#d5e8d4;strokeColor=#82b366;strokeWidth=2;" edge="1" parent="1" source="1KdMk6m9oYXf7EynhkcC-7" target="1KdMk6m9oYXf7EynhkcC-8">
          <mxGeometry relative="1" as="geometry" />
        </mxCell>
        <mxCell id="1KdMk6m9oYXf7EynhkcC-21" style="edgeStyle=orthogonalEdgeStyle;curved=1;rounded=0;orthogonalLoop=1;jettySize=auto;html=1;entryX=1;entryY=0.5;entryDx=0;entryDy=0;strokeWidth=2;exitX=0.5;exitY=1;exitDx=0;exitDy=0;fillColor=#ffe6cc;strokeColor=#d79b00;" edge="1" parent="1" source="1KdMk6m9oYXf7EynhkcC-7" target="1KdMk6m9oYXf7EynhkcC-8">
          <mxGeometry relative="1" as="geometry" />
        </mxCell>
        <mxCell id="1KdMk6m9oYXf7EynhkcC-7" value="cat-prod" style="rounded=0;whiteSpace=wrap;html=1;" vertex="1" parent="1">
          <mxGeometry x="510" y="400" width="120" height="60" as="geometry" />
        </mxCell>
        <mxCell id="1KdMk6m9oYXf7EynhkcC-18" style="edgeStyle=orthogonalEdgeStyle;curved=1;rounded=0;orthogonalLoop=1;jettySize=auto;html=1;entryX=0.5;entryY=0;entryDx=0;entryDy=0;exitX=0.5;exitY=1;exitDx=0;exitDy=0;fillColor=#f5f5f5;strokeColor=#666666;strokeWidth=2;" edge="1" parent="1" source="1KdMk6m9oYXf7EynhkcC-8" target="1KdMk6m9oYXf7EynhkcC-9">
          <mxGeometry relative="1" as="geometry" />
        </mxCell>
        <mxCell id="1KdMk6m9oYXf7EynhkcC-19" style="edgeStyle=orthogonalEdgeStyle;curved=1;rounded=0;orthogonalLoop=1;jettySize=auto;html=1;entryX=0.5;entryY=0;entryDx=0;entryDy=0;exitX=0.5;exitY=1;exitDx=0;exitDy=0;fillColor=#d5e8d4;strokeColor=#82b366;strokeWidth=2;" edge="1" parent="1" source="1KdMk6m9oYXf7EynhkcC-8" target="1KdMk6m9oYXf7EynhkcC-10">
          <mxGeometry relative="1" as="geometry" />
        </mxCell>
        <mxCell id="1KdMk6m9oYXf7EynhkcC-22" style="edgeStyle=orthogonalEdgeStyle;curved=1;rounded=0;orthogonalLoop=1;jettySize=auto;html=1;entryX=0;entryY=0.5;entryDx=0;entryDy=0;strokeWidth=2;exitX=0.5;exitY=1;exitDx=0;exitDy=0;fillColor=#ffe6cc;strokeColor=#d79b00;" edge="1" parent="1" source="1KdMk6m9oYXf7EynhkcC-8" target="1KdMk6m9oYXf7EynhkcC-10">
          <mxGeometry relative="1" as="geometry" />
        </mxCell>
        <mxCell id="1KdMk6m9oYXf7EynhkcC-8" value="dog-prod" style="rounded=0;whiteSpace=wrap;html=1;" vertex="1" parent="1">
          <mxGeometry x="350" y="530" width="120" height="60" as="geometry" />
        </mxCell>
        <mxCell id="1KdMk6m9oYXf7EynhkcC-9" value="monkey-gray" style="rounded=0;whiteSpace=wrap;html=1;" vertex="1" parent="1">
          <mxGeometry x="190" y="670" width="120" height="60" as="geometry" />
        </mxCell>
        <mxCell id="1KdMk6m9oYXf7EynhkcC-10" value="monkey-prod" style="rounded=0;whiteSpace=wrap;html=1;" vertex="1" parent="1">
          <mxGeometry x="510" y="670" width="120" height="60" as="geometry" />
        </mxCell>
      </root>
    </mxGraphModel>
  </diagram>
</mxfile>
